Coordinates
version=1
nRows=13
nColumns=22
inDegrees=yes

Units are S.I. units (second, meters, Newtons, ...)
If the header above contains a line with 'inDegrees', this indicates whether rotational values are in degrees (yes) or radians (no).

endheader
time	pelvis_tilt	pelvis_list	pelvis_rotation	pelvis_tx	pelvis_ty	pelvis_tz	hip_flexion_r	hip_adduction_r	hip_rotation_r	knee_angle_r	ankle_angle_r	subtalar_angle_r	hip_flexion_l	hip_adduction_l	hip_rotation_l	knee_angle_l	ankle_angle_l	subtalar_angle_l	lumbar_extension	lumbar_bending	lumbar_rotation
      2.53000000	     -5.82467468	      0.43083764	    -22.14194342	      1.10617927	      0.98028593	      0.47653319	     34.15565295	      1.32032451	     -4.99003219	    -41.84573507	     14.41022202	      4.34037814	     27.80453196	      0.41058915	     -0.10704958	    -28.43982183	     11.18683815	     -0.03230892	     -5.82611416	      2.65694950	      4.51366032
      2.54000000	     -5.97174593	      0.52119085	    -21.89968609	      1.11103019	      0.98060570	      0.47903238	     33.49236672	      1.53322374	     -4.45983565	    -40.14771735	     13.49866481	      4.59790394	     27.51199138	      0.48727426	      0.04214858	    -28.19004724	     11.57130199	     -0.03728423	     -5.44334715	      2.44620910	      4.32355127
      2.55000000	     -6.05286457	      0.66089087	    -21.63857459	      1.11583454	      0.98064388	      0.48142088	     32.82152203	      1.64061322	     -3.92790769	    -38.78132399	     12.84683294	      4.50160515	     27.20837001	      0.64756594	      0.21412903	    -27.99425099	     12.01088538	     -0.06168583	     -5.08789538	      2.16362387	      4.16126782
      2.56000000	     -6.08515785	      0.87178168	    -21.37177784	      1.12056855	      0.98040307	      0.48368307	     32.18774373	      1.62585626	     -3.44549982	    -37.74202375	     12.47682621	      3.82699208	     26.91859607	      0.89936977	      0.37724199	    -27.85176216	     12.46898368	     -0.11973986	     -4.73754936	      1.80164356	      4.00701189
      2.57000000	     -6.11427186	      1.15833972	    -21.09443243	      1.12517866	      0.97986264	      0.48579799	     31.65025423	      1.49657509	     -3.04987667	    -37.00384055	     12.44748271	      2.88222427	     26.69916209	      1.22985717	      0.52653776	    -27.77178729	     12.92868212	     -0.18303803	     -4.35577055	      1.37377621	      3.84819309
      2.58000000	     -6.11859228	      1.45371385	    -20.83392382	      1.12961784	      0.97919779	      0.48779479	     31.14714358	      1.33652458	     -2.71548319	    -36.47563189	     12.64658747	      1.70615777	     26.50110226	      1.57838168	      0.68454663	    -27.75573312	     13.37914348	     -0.24693724	     -4.01023497	      0.95049019	      3.72516742
      2.59000000	     -6.11412964	      1.74612750	    -20.59862055	      1.13391844	      0.97846609	      0.48970388	     30.68875342	      1.15712593	     -2.49322266	    -36.10402036	     13.05554949	      0.42186781	     26.31988157	      1.91737115	      0.80678126	    -27.77424923	     13.87566523	     -0.30170142	     -3.68572853	      0.54963468	      3.64001360
      2.60000000	     -6.09035614	      2.03436566	    -20.38953442	      1.13801147	      0.97775107	      0.49152374	     30.26814773	      0.97064164	     -2.32980983	    -35.84423251	     13.60900990	     -0.83896065	     26.15711885	      2.25147912	      0.90576783	    -27.84389929	     14.33080654	     -0.34060510	     -3.41225419	      0.16523588	      3.56793158
      2.61000000	     -6.06780938	      2.28484082	    -20.21716721	      1.14191403	      0.97711400	      0.49326786	     29.88268438	      0.81885608	     -2.22580937	    -35.64513363	     14.20369772	     -2.03487891	     26.01494011	      2.53829877	      0.98104865	    -27.95537217	     14.75672122	     -0.36793153	     -3.18003047	     -0.15287258	      3.52546636
      2.62000000	     -6.05842283	      2.48164051	    -20.08444696	      1.14562804	      0.97660787	      0.49495901	     29.52896685	      0.72366415	     -2.16028033	    -35.47244694	     14.77603086	     -3.09690947	     25.89144891	      2.75715581	      1.04359063	    -28.09289152	     15.14256126	     -0.38475545	     -2.98237074	     -0.38668907	      3.52877703
      2.63000000	     -6.06238164	      2.62055619	    -19.99038903	      1.14915159	      0.97625700	      0.49659125	     29.20441409	      0.68491739	     -2.11550241	    -35.31930656	     15.29430236	     -3.97402254	     25.79027104	      2.90354276	      1.08795682	    -28.26411085	     15.48202076	     -0.39105652	     -2.82202212	     -0.53268834	      3.55255930
      2.64000000	     -6.09809719	      2.67747283	    -19.93965574	      1.15251003	      0.97607689	      0.49819902	     28.90006399	      0.72881410	     -2.09538838	    -35.15304620	     15.71955510	     -4.64679748	     25.71417904	      2.94014029	      1.10597028	    -28.45966045	     15.79443213	     -0.38612414	     -2.68074735	     -0.55933748	      3.62460940
      2.65000000	     -6.15686973	      2.68515777	    -19.92391635	      1.15572626	      0.97606779	      0.49976737	     28.62050191	      0.81179870	     -2.08741726	    -34.98329496	     16.06492304	     -5.03280486	     25.64746506	      2.90606074	      1.10016497	    -28.64585990	     16.06014770	     -0.36491018	     -2.55176557	     -0.51121288	      3.72224817
